<svg width="242" height="214" viewBox="0 0 242 214" fill="none" xmlns="http://www.w3.org/2000/svg">
<path d="M147.125 131.371C150.375 131.371 153.125 128.746 153.125 125.371V89.3711C153.125 86.1211 150.375 83.3711 147.125 83.3711H95.1245C91.7495 83.3711 89.1245 86.1211 89.1245 89.3711V125.371C89.1245 128.746 91.7495 131.371 95.1245 131.371H147.125ZM103.125 90.3711C106.875 90.3711 110.125 93.6211 110.125 97.3711C110.125 101.246 106.875 104.371 103.125 104.371C99.2495 104.371 96.1245 101.246 96.1245 97.3711C96.1245 93.6211 99.2495 90.3711 103.125 90.3711ZM97.1245 123.371V117.371L106 108.496C106.625 107.871 107.5 107.871 108.125 108.496L115.125 115.371L132 98.4961C132.625 97.8711 133.5 97.8711 134.125 98.4961L145.125 109.371V123.371H97.1245Z" fill="#2B2B2B"/>
</svg>
