<svg width="241" height="214" viewBox="0 0 241 214" fill="none" xmlns="http://www.w3.org/2000/svg">
<rect x="0.252197" width="240.413" height="214" rx="5" fill="#F5F5FF"/>
<path d="M146.459 131.371C149.709 131.371 152.459 128.746 152.459 125.371V89.3711C152.459 86.1211 149.709 83.3711 146.459 83.3711H94.4589C91.0839 83.3711 88.4589 86.1211 88.4589 89.3711V125.371C88.4589 128.746 91.0839 131.371 94.4589 131.371H146.459ZM102.459 90.3711C106.209 90.3711 109.459 93.6211 109.459 97.3711C109.459 101.246 106.209 104.371 102.459 104.371C98.5839 104.371 95.4589 101.246 95.4589 97.3711C95.4589 93.6211 98.5839 90.3711 102.459 90.3711ZM96.4589 123.371V117.371L105.334 108.496C105.959 107.871 106.834 107.871 107.459 108.496L114.459 115.371L131.334 98.4961C131.959 97.8711 132.834 97.8711 133.459 98.4961L144.459 109.371V123.371H96.4589Z" fill="#2B2B2B"/>
</svg>
