<svg width="241" height="214" viewBox="0 0 241 214" fill="none" xmlns="http://www.w3.org/2000/svg">
<rect x="0.58667" width="240.413" height="214" rx="5" fill="#F5F5FF"/>
<path d="M146.793 131.371C150.043 131.371 152.793 128.746 152.793 125.371V89.3711C152.793 86.1211 150.043 83.3711 146.793 83.3711H94.7934C91.4184 83.3711 88.7934 86.1211 88.7934 89.3711V125.371C88.7934 128.746 91.4184 131.371 94.7934 131.371H146.793ZM102.793 90.3711C106.543 90.3711 109.793 93.6211 109.793 97.3711C109.793 101.246 106.543 104.371 102.793 104.371C98.9184 104.371 95.7934 101.246 95.7934 97.3711C95.7934 93.6211 98.9184 90.3711 102.793 90.3711ZM96.7934 123.371V117.371L105.668 108.496C106.293 107.871 107.168 107.871 107.793 108.496L114.793 115.371L131.668 98.4961C132.293 97.8711 133.168 97.8711 133.793 98.4961L144.793 109.371V123.371H96.7934Z" fill="#2B2B2B"/>
</svg>
