<svg width="81" height="116" viewBox="0 0 81 116" fill="none" xmlns="http://www.w3.org/2000/svg">
<path fill-rule="evenodd" clip-rule="evenodd" d="M20.3807 0.133737C20.5997 0.0454437 20.8345 0 21.0716 0H59.6038C59.8409 0 60.0757 0.0454437 60.2947 0.133737L73.9179 5.62481C74.3603 5.80313 74.7118 6.14515 74.895 6.57564L80.5379 19.8323C80.7212 20.2628 80.7212 20.7465 80.5379 21.1769L74.895 34.4336C74.7118 34.8641 74.3603 35.2061 73.9179 35.3844L64.3217 39.2523L73.9179 43.1202C74.3603 43.2985 74.7118 43.6405 74.895 44.071L80.5379 57.3277C80.7212 57.7582 80.7212 58.2418 80.5379 58.6723L74.895 71.929C74.7118 72.3595 74.3603 72.7015 73.9179 72.8798L60.2947 78.3709C59.8523 78.5492 59.3552 78.5492 58.9128 78.3709L45.2897 72.8798C44.8473 72.7015 44.4958 72.3595 44.3125 71.929L42.1432 66.8326V76.4987C42.1432 76.5406 42.1417 76.5821 42.1387 76.6232C42.1417 76.6643 42.1432 76.7058 42.1432 76.7477V95.4954C42.1432 95.7261 42.0965 95.9546 42.0057 96.1677L36.3628 109.424C36.1796 109.855 35.8281 110.197 35.3857 110.375L21.7625 115.866C21.3201 116.045 20.823 116.045 20.3807 115.866L6.75747 110.375C6.31507 110.197 5.96359 109.855 5.78034 109.424L0.137435 96.1677C-0.0458115 95.7372 -0.0458115 95.2536 0.137435 94.8231L5.78034 81.5664C5.96359 81.1359 6.31507 80.7939 6.75747 80.6156L16.6624 76.6232L6.75747 72.6308C6.31507 72.4525 5.96359 72.1105 5.78034 71.68L0.137435 58.4234C-0.0458115 57.9929 -0.0458115 57.5092 0.137435 57.0787L5.78034 43.8221C5.96359 43.3916 6.31507 43.0496 6.75747 42.8713L16.0448 39.1278L6.75747 35.3844C6.31507 35.2061 5.96359 34.8641 5.78034 34.4336L0.137435 21.1769C-0.0458115 20.7465 -0.0458115 20.2628 0.137435 19.8323L5.78034 6.57564C5.96359 6.14515 6.31507 5.80313 6.75747 5.62481L20.3807 0.133737ZM20.8469 40.9956L10.6357 45.1114L38.5322 72.2572V41.0092H21.0716C20.9963 41.0092 20.9213 41.0046 20.8469 40.9956ZM42.1432 41.0092V49.1674L44.3125 44.071C44.4958 43.6405 44.8473 43.2985 45.2897 43.1202L50.527 41.0092H42.1432ZM59.2446 37.4954H42.1432V5.99846L70.0396 33.1443L59.2446 37.4954ZM72.593 30.6596L76.9156 20.5046L71.8451 8.59266L59.2446 3.51382H44.6965L72.593 30.6596ZM38.5322 3.51382H21.4307L10.6357 7.86492L38.5322 35.0107V3.51382ZM35.723 37.2464H21.0716C20.9963 37.2464 20.9213 37.251 20.8469 37.2601L8.83026 32.4165L3.75973 20.5046L8.0824 10.3496L35.723 37.2464ZM59.6038 41.154L49.1679 45.3603L72.593 68.155L76.9156 58L71.8451 46.0881L59.6038 41.154ZM70.0396 70.6397L46.6146 47.845L42.2919 58L47.3624 69.9119L59.6038 74.846L70.0396 70.6397ZM35.9788 74.7418L8.0824 47.596L3.75974 57.751L8.83026 69.663L21.4307 74.7418H35.9788ZM21.4307 78.5046H38.5322V95.1459L34.0608 105.65L10.6357 82.8557L21.4307 78.5046ZM8.0824 85.3404L3.75974 95.4954L8.83026 107.407L21.0716 112.341L31.5074 108.135L8.0824 85.3404Z" fill="#3928A6"/>
</svg>
